<svg data-v-423bf9ae="" xmlns="http://www.w3.org/2000/svg" viewBox="0 0 336.9642709347676 60" class="font"><!----><!----><!----><g data-v-423bf9ae="" id="3acd11c8-52d2-4eaf-98a3-f39ccd74ecba" fill="#000000" transform="matrix(5.357142492216485,0,0,5.357142492216485,-4.285716792150936,-6.803571339772709)"><path d="M5.07 1.27L5.07 1.27Q6.27 1.27 7.10 1.76L7.10 1.76L7.10 1.76Q7.92 2.25 8.50 3.16L8.50 3.16L8.50 3.16Q8.67 3.43 8.67 3.67L8.67 3.67L8.67 3.67Q8.67 3.98 8.39 4.17L8.39 4.17L8.39 4.17Q8.23 4.27 8.02 4.27L8.02 4.27L8.02 4.27Q7.81 4.27 7.63 4.16L7.63 4.16L7.63 4.16Q7.45 4.06 7.35 3.88L7.35 3.88L7.35 3.88Q6.97 3.25 6.41 2.92L6.41 2.92L6.41 2.92Q5.84 2.59 4.97 2.59L4.97 2.59L4.97 2.59Q3.91 2.59 3.25 3.00L3.25 3.00L3.25 3.00Q2.59 3.42 2.59 4.20L2.59 4.20L2.59 4.20Q2.59 4.93 3.18 5.42L3.18 5.42L3.18 5.42Q3.77 5.91 5.28 6.06L5.28 6.06L5.28 6.06Q6.96 6.23 7.88 7.08L7.88 7.08L7.88 7.08Q8.81 7.92 8.81 9.31L8.81 9.31L8.81 9.31Q8.81 10.32 8.26 11.04L8.26 11.04L8.26 11.04Q7.71 11.76 6.81 12.12L6.81 12.12L6.81 12.12Q5.91 12.47 4.87 12.47L4.87 12.47L4.87 12.47Q3.51 12.47 2.40 11.86L2.40 11.86L2.40 11.86Q1.29 11.24 0.87 10.25L0.87 10.25L0.87 10.25Q0.80 10.08 0.80 9.97L0.80 9.97L0.80 9.97Q0.80 9.76 0.95 9.60L0.95 9.60L0.95 9.60Q1.11 9.44 1.37 9.38L1.37 9.38L1.37 9.38Q1.41 9.37 1.51 9.37L1.51 9.37L1.51 9.37Q1.74 9.37 1.94 9.50L1.94 9.50L1.94 9.50Q2.14 9.63 2.24 9.86L2.24 9.86L2.24 9.86Q2.49 10.40 3.23 10.78L3.23 10.78L3.23 10.78Q3.98 11.16 4.87 11.16L4.87 11.16L4.87 11.16Q5.92 11.16 6.65 10.67L6.65 10.67L6.65 10.67Q7.38 10.19 7.38 9.35L7.38 9.35L7.38 9.35Q7.38 8.55 6.76 7.99L6.76 7.99L6.76 7.99Q6.15 7.42 4.89 7.29L4.89 7.29L4.89 7.29Q3.15 7.13 2.16 6.28L2.16 6.28L2.16 6.28Q1.16 5.43 1.16 4.16L1.16 4.16L1.16 4.16Q1.16 3.26 1.67 2.61L1.67 2.61L1.67 2.61Q2.18 1.96 3.07 1.62L3.07 1.62L3.07 1.62Q3.96 1.27 5.07 1.27L5.07 1.27ZM17.77 8.39L17.77 8.39Q17.77 8.65 17.58 8.83L17.58 8.83L17.58 8.83Q17.40 9.00 17.12 9.00L17.12 9.00L11.80 9.00L11.80 9.00Q11.96 9.98 12.69 10.58L12.69 10.58L12.69 10.58Q13.43 11.19 14.49 11.19L14.49 11.19L14.49 11.19Q14.91 11.19 15.37 11.03L15.37 11.03L15.37 11.03Q15.82 10.88 16.11 10.65L16.11 10.65L16.11 10.65Q16.31 10.50 16.58 10.50L16.58 10.50L16.58 10.50Q16.84 10.50 17.00 10.64L17.00 10.64L17.00 10.64Q17.25 10.85 17.25 11.12L17.25 11.12L17.25 11.12Q17.25 11.37 17.02 11.54L17.02 11.54L17.02 11.54Q16.55 11.91 15.84 12.15L15.84 12.15L15.84 12.15Q15.13 12.39 14.49 12.39L14.49 12.39L14.49 12.39Q13.34 12.39 12.43 11.89L12.43 11.89L12.43 11.89Q11.52 11.40 11.01 10.51L11.01 10.51L11.01 10.51Q10.50 9.63 10.50 8.51L10.50 8.51L10.50 8.51Q10.50 7.39 10.98 6.50L10.98 6.50L10.98 6.50Q11.47 5.61 12.33 5.12L12.33 5.12L12.33 5.12Q13.19 4.62 14.28 4.62L14.28 4.62L14.28 4.62Q15.36 4.62 16.14 5.10L16.14 5.10L16.14 5.10Q16.93 5.57 17.35 6.43L17.35 6.43L17.35 6.43Q17.77 7.28 17.77 8.39L17.77 8.39ZM14.28 5.82L14.28 5.82Q13.26 5.82 12.62 6.38L12.62 6.38L12.62 6.38Q11.98 6.94 11.82 7.88L11.82 7.88L16.48 7.88L16.48 7.88Q16.35 6.94 15.78 6.38L15.78 6.38L15.78 6.38Q15.20 5.82 14.28 5.82L14.28 5.82ZM26.46 8.39L26.46 8.39Q26.46 8.65 26.28 8.83L26.28 8.83L26.28 8.83Q26.10 9.00 25.82 9.00L25.82 9.00L20.50 9.00L20.50 9.00Q20.65 9.98 21.39 10.58L21.39 10.58L21.39 10.58Q22.12 11.19 23.18 11.19L23.18 11.19L23.18 11.19Q23.60 11.19 24.06 11.03L24.06 11.03L24.06 11.03Q24.51 10.88 24.81 10.65L24.81 10.65L24.81 10.65Q25.00 10.50 25.27 10.50L25.27 10.50L25.27 10.50Q25.54 10.50 25.69 10.64L25.69 10.64L25.69 10.64Q25.94 10.85 25.94 11.12L25.94 11.12L25.94 11.12Q25.94 11.37 25.72 11.54L25.72 11.54L25.72 11.54Q25.24 11.91 24.54 12.15L24.54 12.15L24.54 12.15Q23.83 12.39 23.18 12.39L23.18 12.39L23.18 12.39Q22.04 12.39 21.13 11.89L21.13 11.89L21.13 11.89Q20.22 11.40 19.71 10.51L19.71 10.51L19.71 10.51Q19.19 9.63 19.19 8.51L19.19 8.51L19.19 8.51Q19.19 7.39 19.68 6.50L19.68 6.50L19.68 6.50Q20.16 5.61 21.02 5.12L21.02 5.12L21.02 5.12Q21.88 4.62 22.97 4.62L22.97 4.62L22.97 4.62Q24.05 4.62 24.84 5.10L24.84 5.10L24.84 5.10Q25.62 5.57 26.04 6.43L26.04 6.43L26.04 6.43Q26.46 7.28 26.46 8.39L26.46 8.39ZM22.97 5.82L22.97 5.82Q21.95 5.82 21.32 6.38L21.32 6.38L21.32 6.38Q20.68 6.94 20.51 7.88L20.51 7.88L25.17 7.88L25.17 7.88Q25.05 6.94 24.47 6.38L24.47 6.38L24.47 6.38Q23.90 5.82 22.97 5.82L22.97 5.82ZM34.89 1.40L34.89 1.40Q35.21 1.40 35.41 1.60L35.41 1.60L35.41 1.60Q35.60 1.79 35.60 2.11L35.60 2.11L35.60 8.50L35.60 8.50Q35.60 9.59 35.09 10.48L35.09 10.48L35.09 10.48Q34.58 11.37 33.71 11.88L33.71 11.88L33.71 11.88Q32.83 12.39 31.75 12.39L31.75 12.39L31.75 12.39Q30.67 12.39 29.79 11.88L29.79 11.88L29.79 11.88Q28.90 11.37 28.39 10.48L28.39 10.48L28.39 10.48Q27.89 9.59 27.89 8.50L27.89 8.50L27.89 8.50Q27.89 7.41 28.36 6.52L28.36 6.52L28.36 6.52Q28.83 5.63 29.65 5.12L29.65 5.12L29.65 5.12Q30.46 4.62 31.47 4.62L31.47 4.62L31.47 4.62Q32.28 4.62 32.98 4.96L32.98 4.96L32.98 4.96Q33.68 5.29 34.17 5.89L34.17 5.89L34.17 2.11L34.17 2.11Q34.17 1.79 34.38 1.60L34.38 1.60L34.38 1.60Q34.58 1.40 34.89 1.40L34.89 1.40ZM31.75 11.13L31.75 11.13Q32.45 11.13 33.02 10.79L33.02 10.79L33.02 10.79Q33.59 10.44 33.91 9.84L33.91 9.84L33.91 9.84Q34.23 9.24 34.23 8.50L34.23 8.50L34.23 8.50Q34.23 7.76 33.91 7.16L33.91 7.16L33.91 7.16Q33.59 6.57 33.02 6.22L33.02 6.22L33.02 6.22Q32.45 5.88 31.75 5.88L31.75 5.88L31.75 5.88Q31.05 5.88 30.49 6.22L30.49 6.22L30.49 6.22Q29.92 6.57 29.59 7.16L29.59 7.16L29.59 7.16Q29.26 7.76 29.26 8.50L29.26 8.50L29.26 8.50Q29.26 9.24 29.59 9.84L29.59 9.84L29.59 9.84Q29.92 10.44 30.49 10.79L30.49 10.79L30.49 10.79Q31.05 11.13 31.75 11.13L31.75 11.13ZM42.34 1.40L42.34 1.40Q43.27 1.40 44.00 1.77L44.00 1.77L44.00 1.77Q44.73 2.14 45.14 2.81L45.14 2.81L45.14 2.81Q45.56 3.47 45.56 4.31L45.56 4.31L45.56 4.31Q45.56 5.00 45.19 5.54L45.19 5.54L45.19 5.54Q44.81 6.09 44.17 6.43L44.17 6.43L44.17 6.43Q45.12 6.65 45.67 7.32L45.67 7.32L45.67 7.32Q46.21 7.99 46.21 9.03L46.21 9.03L46.21 9.03Q46.21 9.98 45.76 10.74L45.76 10.74L45.76 10.74Q45.30 11.49 44.48 11.91L44.48 11.91L44.48 11.91Q43.67 12.33 42.63 12.33L42.63 12.33L38.99 12.33L38.99 12.33Q38.68 12.33 38.47 12.12L38.47 12.12L38.47 12.12Q38.26 11.91 38.26 11.61L38.26 11.61L38.26 2.13L38.26 2.13Q38.26 1.81 38.47 1.60L38.47 1.60L38.47 1.60Q38.68 1.40 38.99 1.40L38.99 1.40L42.34 1.40ZM42.34 5.89L42.34 5.89Q43.16 5.89 43.66 5.49L43.66 5.49L43.66 5.49Q44.16 5.08 44.16 4.31L44.16 4.31L44.16 4.31Q44.16 3.54 43.66 3.14L43.66 3.14L43.66 3.14Q43.16 2.74 42.34 2.74L42.34 2.74L39.72 2.74L39.72 5.89L42.34 5.89ZM42.63 10.99L42.63 10.99Q43.61 10.99 44.21 10.48L44.21 10.48L44.21 10.48Q44.81 9.97 44.81 9.03L44.81 9.03L44.81 9.03Q44.81 8.16 44.22 7.70L44.22 7.70L44.22 7.70Q43.62 7.24 42.63 7.24L42.63 7.24L39.72 7.24L39.72 10.99L42.63 10.99ZM51.72 4.62L51.72 4.62Q52.82 4.62 53.70 5.12L53.70 5.12L53.70 5.12Q54.57 5.61 55.07 6.50L55.07 6.50L55.07 6.50Q55.57 7.38 55.57 8.51L55.57 8.51L55.57 8.51Q55.57 9.63 55.08 10.51L55.08 10.51L55.08 10.51Q54.59 11.40 53.71 11.89L53.71 11.89L53.71 11.89Q52.84 12.39 51.72 12.39L51.72 12.39L51.72 12.39Q50.60 12.39 49.71 11.89L49.71 11.89L49.71 11.89Q48.83 11.40 48.34 10.51L48.34 10.51L48.34 10.51Q47.85 9.63 47.85 8.51L47.85 8.51L47.85 8.51Q47.85 7.38 48.34 6.50L48.34 6.50L48.34 6.50Q48.83 5.61 49.71 5.12L49.71 5.12L49.71 5.12Q50.60 4.62 51.72 4.62L51.72 4.62ZM51.72 5.88L51.72 5.88Q51.00 5.88 50.44 6.22L50.44 6.22L50.44 6.22Q49.87 6.55 49.55 7.15L49.55 7.15L49.55 7.15Q49.22 7.76 49.22 8.51L49.22 8.51L49.22 8.51Q49.22 9.27 49.55 9.86L49.55 9.86L49.55 9.86Q49.87 10.46 50.44 10.79L50.44 10.79L50.44 10.79Q51.00 11.13 51.72 11.13L51.72 11.13L51.72 11.13Q52.43 11.13 53.00 10.79L53.00 10.79L53.00 10.79Q53.56 10.46 53.88 9.86L53.88 9.86L53.88 9.86Q54.19 9.27 54.19 8.51L54.19 8.51L54.19 8.51Q54.19 7.76 53.88 7.15L53.88 7.15L53.88 7.15Q53.56 6.55 53.00 6.22L53.00 6.22L53.00 6.22Q52.43 5.88 51.72 5.88L51.72 5.88ZM63.50 11.26L63.50 11.26Q63.70 11.47 63.70 11.75L63.70 11.75L63.70 11.75Q63.70 12.00 63.53 12.17L63.53 12.17L63.53 12.17Q63.35 12.33 63.07 12.33L63.07 12.33L63.07 12.33Q62.73 12.33 62.57 12.11L62.57 12.11L60.34 9.45L58.23 12.11L58.23 12.11Q58.02 12.33 57.72 12.33L57.72 12.33L57.72 12.33Q57.44 12.33 57.28 12.17L57.28 12.17L57.28 12.17Q57.12 12.00 57.12 11.75L57.12 11.75L57.12 11.75Q57.12 11.47 57.32 11.23L57.32 11.23L59.49 8.51L57.18 5.78L57.18 5.78Q56.97 5.53 56.97 5.25L56.97 5.25L56.97 5.25Q56.97 5.01 57.13 4.84L57.13 4.84L57.13 4.84Q57.29 4.68 57.58 4.68L57.58 4.68L57.58 4.68Q57.92 4.68 58.11 4.91L58.11 4.91L60.41 7.66L62.47 4.91L62.47 4.91Q62.65 4.68 62.99 4.68L62.99 4.68L62.99 4.68Q63.27 4.68 63.43 4.85L63.43 4.85L63.43 4.85Q63.59 5.03 63.59 5.28L63.59 5.28L63.59 5.28Q63.59 5.59 63.39 5.84L63.39 5.84L61.28 8.60L63.50 11.26Z"></path></g><!----><!----></svg>